inDegrees=yes
DataType=double
version=3
OpenSimVersion=4.5-2024-07-22-fc2981e9e
endheader
time	pelvis_tx	pelvis_ty	pelvis_tz	pelvis_tilt	pelvis_list	pelvis_rotation	hip_flexion_r	hip_adduction_r	hip_rotation_r	knee_angle_r	ankle_angle_r	hip_flexion_l	hip_adduction_l	hip_rotation_l	knee_angle_l	ankle_angle_l	lumbar_extension	lumbar_bending	lumbar_rotation	arm_flex_r	arm_add_r	arm_rot_r	elbow_flex_r	pro_sup_r	arm_flex_l	arm_add_l	arm_rot_l	elbow_flex_l	pro_sup_l	subtalar_angle_r	mtp_angle_r	subtalar_angle_l	mtp_angle_l	wrist_flex_r	wrist_dev_r	wrist_flex_l	wrist_dev_l	R.ASIS_tx	R.ASIS_ty	R.ASIS_tz	L.ASIS_tx	L.ASIS_ty	L.ASIS_tz	V.Sacral_tx	V.Sacral_ty	V.Sacral_tz	R.Thigh.Upper_tx	R.Thigh.Upper_ty	R.Thigh.Upper_tz	R.Thigh.Front_tx	R.Thigh.Front_ty	R.Thigh.Front_tz	R.Thigh.Rear_tx	R.Thigh.Rear_ty	R.Thigh.Rear_tz	L.Thigh.Upper_tx	L.Thigh.Upper_ty	L.Thigh.Upper_tz	L.Thigh.Front_tx	L.Thigh.Front_ty	L.Thigh.Front_tz	L.Thigh.Rear_tx	L.Thigh.Rear_ty	L.Thigh.Rear_tz	R.Shank.Upper_tx	R.Shank.Upper_ty	R.Shank.Upper_tz	R.Shank.Front_tx	R.Shank.Front_ty	R.Shank.Front_tz	R.Shank.Rear_tx	R.Shank.Rear_ty	R.Shank.Rear_tz	L.Shank.Upper_tx	L.Shank.Upper_ty	L.Shank.Upper_tz	L.Shank.Front_tx	L.Shank.Front_ty	L.Shank.Front_tz	L.Shank.Rear_tx	L.Shank.Rear_ty	L.Shank.Rear_tz	R.Heel_tx	R.Heel_ty	R.Heel_tz	R.Midfoot.Sup_tx	R.Midfoot.Sup_ty	R.Midfoot.Sup_tz	R.Midfoot.Lat_tx	R.Midfoot.Lat_ty	R.Midfoot.Lat_tz	R.Toe.Tip_tx	R.Toe.Tip_ty	R.Toe.Tip_tz	L.Heel_tx	L.Heel_ty	L.Heel_tz	L.Midfoot.Sup_tx	L.Midfoot.Sup_ty	L.Midfoot.Sup_tz	L.Midfoot.Lat_tx	L.Midfoot.Lat_ty	L.Midfoot.Lat_tz	L.Toe.Tip_tx	L.Toe.Tip_ty	L.Toe.Tip_tz	Sternum_tx	Sternum_ty	Sternum_tz	R.Acromium_tx	R.Acromium_ty	R.Acromium_tz	L.Acromium_tx	L.Acromium_ty	L.Acromium_tz	R.Bicep_tx	R.Bicep_ty	R.Bicep_tz	L.Bicep_tx	L.Bicep_ty	L.Bicep_tz	R.Elbow_tx	R.Elbow_ty	R.Elbow_tz	L.Elbow_tx	L.Elbow_ty	L.Elbow_tz	R.Wrist.Med_tx	R.Wrist.Med_ty	R.Wrist.Med_tz	R.Wrist.Lat_tx	R.Wrist.Lat_ty	R.Wrist.Lat_tz	L.Wrist.Med_tx	L.Wrist.Med_ty	L.Wrist.Med_tz	L.Wrist.Lat_tx	L.Wrist.Lat_ty	L.Wrist.Lat_tz	R.Toe.Lat_tx	R.Toe.Lat_ty	R.Toe.Lat_tz	R.Toe.Med_tx	R.Toe.Med_ty	R.Toe.Med_tz	L.Toe.Lat_tx	L.Toe.Lat_ty	L.Toe.Lat_tz	L.Toe.Med_tx	L.Toe.Med_ty	L.Toe.Med_tz	R.Temple_tx	R.Temple_ty	R.Temple_tz	L.Temple_tx	L.Temple_ty	L.Temple_tz	Top.Head_tx	Top.Head_ty	Top.Head_tz
0	0.7810604799999999	1.00836649	-0.1940779	-0.07780264000000001	0.70433146	-0.29459502	-31.81285233	3.46036908	-0.94769256	-7.60038642	-25.53539086	32.78447859	2.30781908	-6.12364266	-31.33643741	5.91386948	-8.091601669999999	1.37902513	17.22329296	-12.97877748	-35.76623145	-5.92547153	116.74970253	119.87491049	-43.38278094	-29.43067595	5.2592812	75.27980903	100.27659133	0	0	0	0	0	0	0	0	0.8090094	1.03451831	-0.06461081	0.79731982	1.04415015	-0.31226974	0.61347882	1.07033386	-0.1988488	0.61677075	0.75079291	-0.03330804	0.66159033	0.66757245	-0.09337961	0.5499906	0.6774766800000001	-0.04963573	0.85635468	0.77603802	-0.36609018	0.9539776	0.75412225	-0.29998965	0.91378546	0.65885352	-0.34814926	0.42941876	0.51111362	-0.07479474	0.43785336	0.42432437	-0.12146023	0.37216422	0.44920206	-0.07568472	0.92162933	0.48176352	-0.34156137	0.99842712	0.41981046	-0.29635135	0.9068996	0.41104675	-0.33721234	0.14574075	0.28169513	-0.16059682	0.22106287	0.16643501	-0.21734888	0.1850696	0.16379538	-0.11688821	0.28040909	0.04308512	-0.20310303	0.8801546	0.09493683999999999	-0.23965092	1.02089526	0.12797993	-0.19902365	1.0097287	0.09790500000000001	-0.29437161	1.15038806	0.1533333	-0.23709535	0.85419147	1.40801929	-0.24584288	0.8079820599999999	1.49467773	-0.008265639999999999	0.68577417	1.52549976	-0.38397818	0.75901843	1.31096606	0.09372025	0	0	0	0.73860822	1.22310278	0.14623453	0.43879599	1.34631531	-0.43812802	0.96966223	1.23664795	0.03734364	0.94502679	1.26166223	-0.01266513	0.53208826	1.10660193	-0.48447577	0.58813446	1.12535364	-0.44298398	0.21666142	0.07478139	-0.12440647	0.22734111	0.09108665000000001	-0.23598558	1.08559253	0.10096377	-0.31051627	1.09642004	0.11951308	-0.20062943	0.92898773	1.6000564	-0.16410355	0.92271863	1.60424072	-0.3070849	1.00310425	1.66735571	-0.2546889
0.02004618473895583	0.7848083038692268	1.009605630918675	-0.1946518573067269	0.7142901320394076	-1.398488514510542	0.8358037399623495	-30.16235371435366	6.021705285417922	0.0262199809312249	-19.29490230181852	-23.24169157951305	29.7142080260994	1.546687010736697	-4.070284368342119	-24.54699273087099	5.693095147311747	-8.409309522146085	3.72709456842495	17.07983135841491	-14.43533045032505	-35.69901037176707	-6.473828827033133	116.9761012430334	119.844069842992	-45.20999482302585	-29.93455552749874	3.192389038502761	76.47500559233056	101.7237065624523	0	0	0	0	0	0	0	0	0.8121155185215863	1.035280669575803	-0.06652699419929718	0.7977426714608433	1.041454514218122	-0.314329566251255	0.615764235877259	1.067255780227159	-0.1979915141189759	0.6280505543360945	0.745615217311747	-0.03404885244854418	0.6727836112926707	0.663362241749498	-0.09509744992218876	0.5613229536006527	0.6724194404492971	-0.04742477545933735	0.8533224952183734	0.7683392028300703	-0.3667656194678715	0.9445842816729417	0.7418793283396085	-0.2948421979656125	0.9049012491767069	0.6486134283370985	-0.34670784874749	0.4336199524510542	0.5135896979141565	-0.07094221619226908	0.4289966950112952	0.4282197758960843	-0.1197429346536145	0.3689152994201807	0.4606536875288655	-0.07226068175953815	0.9206610869139057	0.4711207535742972	-0.3346341382919177	1.002747972555221	0.4163703674585844	-0.2900026621435743	0.9149269899899598	0.39952328719001	-0.3310634680798192	0.1315536046322791	0.3318716426480924	-0.152760841498494	0.1847059420168173	0.2115193029656124	-0.2150822683383534	0.1485674099234438	0.2107855777296687	-0.1146815433358434	0.2270964745293675	0.08537969104543172	-0.2043535672213855	0.9130040649698795	0.08097397973770079	-0.2322634098606928	1.048582522316767	0.1280798738165161	-0.1933005200527108	1.034938267611697	0.09505626324924699	-0.2885670337788654	1.165215980053966	0.1561653190549699	-0.2309212175978916	0.854913895872239	1.412860382648092	-0.2501207856111948	0.8106007699924699	1.496107058654619	-0.01074647262424699	0.6847958406990462	1.526937105916165	-0.3810854700966365	0.758197836686747	1.314385582129769	0.09384221904869479	0	0	0	0.7386507525213353	1.224748867724649	0.1454679815060241	0.4324282864947289	1.353103437665663	-0.4358008630434237	0.9686701407392069	1.23571304560241	0.03520808862700803	0.9452331252836346	1.261055802447289	-0.01470944265562249	0.5266619157868977	1.113850684200552	-0.4899298034525602	0.5827471231174699	1.131024401853665	-0.4477751707931727	0.1671308005471888	0.1214600333684739	-0.124500034873243	0.1804159751694277	0.1399660640298695	-0.2362897435717871	1.107578290331325	0.1025771618875502	-0.3046809460730422	1.123691937960592	0.126864987562751	-0.1947516423029619	0.9283009366039157	1.599462056293926	-0.1655694741553715	0.9216063628012049	1.603221018959588	-0.3087745399974899	1.001415544506777	1.666485635923695	-0.2562033588579317
0.04009236947791165	0.7863084972076542	1.006387059598393	-0.1951299303047484	1.163152187812426	-2.519545672960076	1.402243483796362	-27.10616589720529	7.280472881266241	-0.2082115431821404	-32.4217015760619	-22.12653779119537	27.63910825724309	1.310122437937633	-2.844588627427356	-19.82584184132766	5.59497700369478	-8.626152563805812	4.841419764956296	17.09869475122136	-15.85241987189464	-35.52934232582329	-6.951456201162296	116.1434498180983	119.7693038392393	-46.30402080007323	-30.64665587427593	1.668345998195133	77.91515097147649	103.1056567681077	0	0	0	0	0	0	0	0	0.8146717050413418	1.034195284316088	-0.06853373141979684	0.7977686023623908	1.037324423576659	-0.3163598820481928	0.6171785542428537	1.06201110898181	-0.1973031185400425	0.6401879684526341	0.7378551234538152	-0.03444613440585873	0.6860012064115285	0.6568858303779825	-0.09594285131585165	0.5752537253579022	0.6633445119938578	-0.04535518284431845	0.8515420404795653	0.7600421457335224	-0.3661366034939759	0.937993389135365	0.7307008419418852	-0.2893562106803685	0.8983392209118828	0.6386513160311835	-0.3435926465343728	0.4436966368202221	0.5122211005835106	-0.0671261243113631	0.4256669261280416	0.4294026895180723	-0.1177631076612332	0.371882604734231	0.4693614671391448	-0.06821939059768485	0.9187327547720293	0.4607110919702339	-0.3278772746680841	1.00416398350815	0.4105995812284432	-0.2835746909402315	0.9184803754949209	0.3886370076801323	-0.3247302710347271	0.1230571155587054	0.3809233016276872	-0.1446295677958894	0.1544879108150248	0.2560291471037089	-0.211342152140326	0.1187808199078668	0.2578135792015119	-0.1109291631419797	0.1793805470753602	0.1266541304701158	-0.2036056318568391	0.9333638479966927	0.06917013873139617	-0.2252022072714387	1.065420874668084	0.1250561083368769	-0.1872510029222773	1.050494721289865	0.09093615018426647	-0.2827903074297189	1.173346527876211	0.1557039080675644	-0.2246101712922277	0.8553821339310181	1.414180678374675	-0.2534335313536499	0.812384157448618	1.494182140540987	-0.0123765524734231	0.6839528876919443	1.525484856692653	-0.3793641214528703	0.7556381711599338	1.314701285920151	0.09361081940467754	0	0	0	0.736141526735176	1.223676351278053	0.1443569870824474	0.4293527000921332	1.353646858747933	-0.4367922881667848	0.9665564188802268	1.226666965268131	0.03542837141743444	0.9450938646161114	1.252299360349634	-0.0149004635719348	0.5260206471131585	1.115755223756201	-0.4958272877155682	0.5815202002858493	1.132052863413655	-0.4524572042853768	0.1240751161634774	0.168096590616584	-0.1225745375147649	0.1394987386439877	0.1880219660618946	-0.2346973622986062	1.120900261982046	0.101616814649185	-0.2988295005480747	1.140133632019844	0.1284987548806993	-0.1886054974155445	0.9275817865934326	1.596680394384597	-0.1668098749846445	0.9206276125159462	1.600049903690054	-0.3101609348736121	1.000010192300969	1.663359773890858	-0.2573966606071345
0.06013855421686748	0.7857909158433736	1.000029801506024	-0.1958815584337349	1.498715801626506	-2.586830328554217	1.72738419560241	-23.65058995391566	7.056348955421686	-1.388172934277109	-44.61379785524097	-21.92694164596385	26.85320069246988	1.847303006746988	-2.242009571204819	-19.21704744084337	6.242298124096386	-8.944861588674698	4.76184041753012	16.80888757993976	-16.93410159493976	-35.02827007680722	-6.937258458554217	113.3217109412651	119.6452976965663	-45.71610532259036	-31.41829416981928	1.424934729036145	78.65992678331325	104.3296260600602	0	0	0	0	0	0	0	0	0.8159397549999999	1.030243404036145	-0.07037429759036144	0.7971836806626507	1.031305260662651	-0.3180934046987952	0.617033598433735	1.053938221385542	-0.1970173781325301	0.6525916331325301	0.7269276172289156	-0.03414233813253012	0.701170451566265	0.6476895395783132	-0.09525197415662651	0.5913104889156627	0.649521359939759	-0.04342429337349397	0.8519262340963855	0.7517132087951808	-0.3640506335542169	0.936049143253012	0.7217654641566266	-0.2842010854216868	0.8959229384939759	0.6298788319879518	-0.3389936771084338	0.4610388719277109	0.5058083500602409	-0.06317668819277109	0.4309098201204819	0.4266805989156627	-0.1147408571084337	0.3835557443975904	0.4733802980722892	-0.06364463421686747	0.9159159933734939	0.451538405	-0.3222802156024097	1.001128457650602	0.401848513253012	-0.2771898548192771	0.9158457224096386	0.3794580146385542	-0.3192699260240964	0.1244995536746988	0.4233178195180723	-0.1367908860240964	0.1371921929518072	0.2949791388554217	-0.2056684862650602	0.1028108330120482	0.299950493253012	-0.105096084939759	0.1457146827710843	0.1621016165662651	-0.1997016448795181	0.9322534209638554	0.06173497903614458	-0.2194066425301205	1.063451649698795	0.1178781842771084	-0.1813584815060241	1.048913599096386	0.08534257746987953	-0.2776279909638554	1.169484125421687	0.1501718994578313	-0.2186969524698795	0.8553497353012047	1.410033432590361	-0.2551181528313253	0.8126728059638555	1.487641059638554	-0.01269386415662651	0.6831078977108433	1.519596373975904	-0.3794693084939759	0.7510855009036145	1.310130870783133	0.09290615144578313	0	0	0	0.7304246459036144	1.218644172168675	0.1429466919879518	0.4308007328915663	1.344955996987952	-0.4419911784337349	0.9625226456626506	1.206915092048193	0.03899843373493976	0.9439747612048193	1.232653849096386	-0.01245193740963855	0.5324306303614459	1.109570241746988	-0.5017693012650603	0.5863952725903615	1.126029823674699	-0.4564923770481927	0.09595917277108433	0.2097636003012048	-0.1175873354819277	0.1124302363855422	0.2297491740963856	-0.2301992690963855	1.118756857771084	0.09685305355421686	-0.2935383403012048	1.137830799819277	0.1217453204819277	-0.1827109594578313	0.9268886347590362	1.590766827590361	-0.1675569981927711	0.9199960137349398	1.593820505722892	-0.3109267551807229	0.9991847945180723	1.65704094186747	-0.25794534
